<?xml version="1.0" encoding="utf-8"?>
<!-- Generator: Adobe Illustrator 22.0.0, SVG Export Plug-In . SVG Version: 6.00 Build 0)  -->
<svg version="1.1" id="Capa_1" xmlns="http://www.w3.org/2000/svg" xmlns:xlink="http://www.w3.org/1999/xlink" x="0px" y="0px"
	 viewBox="0 0 62 61.7" style="enable-background:new 0 0 62 61.7;" xml:space="preserve">
<style type="text/css">
	.st0{fill:#FFFFFF;}
	.st1{fill:#00A0DC;}
</style>
<rect x="5" y="5" class="st0" width="51.9" height="51.9"/>
<path class="st1" d="M18.7,0.8C2.3,0.8,1,2.1,1,18.5v24.7c0,16.4,1.3,17.7,17.7,17.7h24.7c16.4,0,17.7-1.3,17.7-17.7V18.5
	C61,2.1,59.7,0.8,43.3,0.8H18.7z M14.8,6.8h32.5c7.2,0,7.8,0.6,7.8,7.8v32.5c0,7.2-0.6,7.8-7.8,7.8H14.8c-7.2,0-7.8-0.6-7.8-7.8
	V14.6C7,7.4,7.6,6.8,14.8,6.8z M16.8,10.6c-2.4,0-4.4,2-4.4,4.4s2,4.4,4.4,4.4s4.4-2,4.4-4.4C21.2,12.6,19.2,10.6,16.8,10.6z
	 M39.9,22.3c-3.7,0-6.2,2-7.2,3.9h-0.1v-3.3h-7.3v24.4h7.6v-12c0-3.2,0.6-6.3,4.6-6.3c3.9,0,3.9,3.6,3.9,6.5v11.9H49V33.9
	C49,27.4,47.6,22.3,39.9,22.3z M13,22.9v24.4h7.6V22.9H13z"/>
</svg>
