<?xml version="1.0" encoding="utf-8"?>
<!-- Generator: Adobe Illustrator 22.0.0, SVG Export Plug-In . SVG Version: 6.00 Build 0)  -->
<svg version="1.1" id="Capa_1" xmlns="http://www.w3.org/2000/svg" xmlns:xlink="http://www.w3.org/1999/xlink" x="0px" y="0px"
	 viewBox="0 0 388.1 67.1" style="enable-background:new 0 0 388.1 67.1;" xml:space="preserve">
<style type="text/css">
	.st0{clip-path:url(#SVGID_2_);fill:#7E9BC0;}
	.st1{clip-path:url(#SVGID_4_);fill:#47A141;}
	.st2{clip-path:url(#SVGID_6_);fill:#7E9BC0;}
	.st3{clip-path:url(#SVGID_8_);fill:#47A141;}
	.st4{clip-path:url(#SVGID_10_);fill:#47A141;}
</style>
<g>
	<g>
		<defs>
			<rect id="SVGID_1_" x="3" y="3" width="380.9" height="57"/>
		</defs>
		<clipPath id="SVGID_2_">
			<use xlink:href="#SVGID_1_"  style="overflow:visible;"/>
		</clipPath>
		<path class="st0" d="M359.5,27.7c0.8-0.1,1.4-0.1,2-0.1c3.8,0,6.3,0.7,7.4,2c1.1,1.4,1.7,3.2,1.7,5.5c0,1.3-0.2,2.4-0.5,3.3
			s-0.8,1.6-1.4,2.2c-0.6,0.5-1.3,1-2.3,1.2c-0.9,0.3-2,0.5-3.3,0.5c-1.3,0.1-2.5,0.1-3.7,0.1L359.5,27.7L359.5,27.7z M383.9,58
			c-1.9-0.1-3.6-0.6-5-1.6s-3.3-3.2-5.8-6.5c-3-4-5.2-6.4-6.5-7.1c3-0.4,5.3-1.3,6.9-2.8s2.3-3.3,2.3-5.4c0-1.8-0.6-3.4-1.8-4.7
			c-1.2-1.3-2.8-2.2-4.7-2.8c-1.9-0.6-4.4-0.9-7.5-0.9c-1.8,0-4.3,0.1-7.3,0.2l-4.6,0.2v1.1h0.5c1.6,0,2.7,0.1,3.2,0.4
			s0.8,0.8,1,1.5c0.1,0.7,0.2,2.4,0.2,5v15.8c0,2.7-0.1,4.4-0.2,5.2c-0.1,0.7-0.5,1.3-1,1.6c-0.5,0.3-1.5,0.5-2.9,0.5h-1v1.1h15.5
			V58h-1.5c-1.5,0-2.5-0.2-3-0.6s-0.8-1-1-1.8c-0.1-0.8-0.2-2.4-0.2-5v-7.2h1.3c0.9,0,1.5,0.1,1.9,0.4s1.2,1.1,2.3,2.5
			c1.1,1.3,2.2,2.7,3.2,4.2c3.2,4.6,5.5,7.4,7.1,8.5h8.7v-1H383.9z M347.3,54.7c-1,1.4-2,2.3-3.1,2.7c-1.1,0.4-2.5,0.7-4.2,0.7h-2.4
			c-2.2,0-3.5-0.3-4-1s-0.7-2.9-0.7-6.8v-7.6h3.5c1.4,0,2.4,0.1,2.9,0.3c0.6,0.2,1,0.6,1.3,1.2s0.5,1.8,0.5,3.6h1.1V36.7h-1.1
			c0,1.6-0.1,2.7-0.3,3.2c-0.2,0.5-0.6,1-1.2,1.2c-0.6,0.3-1.7,0.4-3.3,0.4h-3.4V27.9h4.5c2.3,0,3.9,0.1,4.9,0.4
			c1,0.2,1.9,0.8,2.6,1.8c0.7,0.9,1.4,2.5,1.9,4.8h1.1l-0.8-8.1H324v1.1c1.6,0,2.6,0.2,3.1,0.5s0.8,0.9,0.9,1.6
			c0.1,0.8,0.2,2.4,0.2,4.9v15.8c0,2.7-0.1,4.4-0.2,5s-0.4,1.2-0.9,1.6s-1.5,0.6-3.1,0.6h-0.7V59h26.8l0.7-10.1h-1.1
			C349.1,51.4,348.3,53.3,347.3,54.7 M318.8,37l2.2-5.1c0.6-1.3,1.2-2.3,2-3s1.6-1,2.6-1.1v-1.1h-9.9v1.1c2.6,0.1,3.9,1,3.9,2.8
			c0,0.9-0.6,2.9-1.9,5.8l-7.5,17.8L301,33c-0.7-1.7-1.1-2.8-1.1-3.2c0-0.7,0.3-1.2,0.9-1.5s1.8-0.4,3.5-0.4v-1.1h-13.9v1.1
			c1.5,0,2.6,0.3,3.3,0.8c0.7,0.5,1.3,1.5,2,3.1c0.4,1.1,0.8,1.9,1,2.4l11.1,25.7h1.5L318.8,37z M278.8,27.9c1.6,0,2.7,0.1,3.2,0.4
			s0.8,0.8,1,1.5c0.1,0.7,0.2,2.4,0.2,5v15.8c0,2.7-0.1,4.4-0.2,5.2c-0.1,0.7-0.5,1.3-1,1.6c-0.5,0.3-1.5,0.5-2.9,0.5h-1V59h14.8v-1
			h-1c-1.5,0-2.4-0.2-3-0.6c-0.5-0.4-0.8-1-1-1.8c-0.1-0.8-0.2-2.4-0.2-5V34.8c0-2.7,0.1-4.4,0.3-5.1c0.2-0.7,0.5-1.2,1-1.5
			s1.5-0.4,3.1-0.4h0.7v-1.1H278v1.1L278.8,27.9L278.8,27.9z M245.9,11.9c1.1-0.1,2.2-0.1,3-0.1c5.7,0,9.4,1,11.1,3.1
			s2.6,4.8,2.6,8.2c0,2-0.2,3.6-0.8,4.9c-0.5,1.3-1.2,2.4-2.1,3.2c-0.9,0.8-2,1.4-3.4,1.9c-1.4,0.4-3.1,0.7-5,0.8
			c-1.9,0.1-3.8,0.2-5.5,0.2L245.9,11.9L245.9,11.9z M282.5,57.5c-2.9-0.1-5.3-0.9-7.4-2.4s-5-4.8-8.6-9.7
			c-4.5-6.1-7.8-9.6-9.8-10.6c4.5-0.5,8-1.9,10.3-4.2c2.3-2.2,3.5-4.9,3.5-8.1c0-2.7-0.9-5.1-2.7-7c-1.8-2-4.1-3.4-7-4.2
			c-2.9-0.9-6.7-1.3-11.3-1.3c-2.7,0-6.4,0.1-11,0.3l-6.9,0.4v1.6h0.8c2.5,0,4,0.2,4.8,0.6c0.7,0.4,1.2,1.2,1.4,2.3
			c0.2,1.1,0.3,3.6,0.3,7.5v23.8c0,4-0.1,6.6-0.3,7.7c-0.2,1.1-0.7,1.9-1.5,2.4s-2.2,0.8-4.3,0.8h-1.6V59h23.2v-1.6H252
			c-2.2,0-3.7-0.3-4.4-0.9c-0.8-0.6-1.2-1.4-1.4-2.6c-0.2-1.2-0.3-3.7-0.3-7.5V35.6h1.9c1.3,0,2.3,0.2,2.9,0.7
			c0.6,0.4,1.8,1.7,3.4,3.7s3.2,4.1,4.8,6.3c4.8,6.9,8.3,11.1,10.6,12.7h13V57.5z"/>
	</g>
	<g>
		<defs>
			<rect id="SVGID_3_" x="3" y="3" width="380.9" height="57"/>
		</defs>
		<clipPath id="SVGID_4_">
			<use xlink:href="#SVGID_3_"  style="overflow:visible;"/>
		</clipPath>
		<path class="st1" d="M227.7,59.8V33.1c0-1.4,0.1-2.4,0.3-2.9c0.2-0.6,0.7-1.1,1.5-1.5s1.9-0.7,3.2-0.8v-1.1H221v1.1
			c1.3,0,2.4,0.2,3.3,0.5s1.5,0.8,1.8,1.4s0.4,1.6,0.4,3v19.3l-19.1-25.3h-9.5v1.1c1.7,0,2.8,0.1,3.3,0.4c0.5,0.2,0.9,0.8,1.1,1.6
			c0.2,0.8,0.3,2.5,0.3,5V52c0,2-0.1,3.2-0.2,3.7c-0.2,0.5-0.6,1-1.4,1.5s-2,0.7-3.5,0.8v1.1h12.1V58c-1.7,0-3-0.2-3.9-0.7
			s-1.4-1-1.6-1.6s-0.3-1.8-0.3-3.7V29.6l22.8,30.3L227.7,59.8L227.7,59.8z M195.5,54.7c-1,1.4-2,2.3-3.1,2.7
			c-1.1,0.4-2.5,0.7-4.2,0.7h-2.4c-2.2,0-3.5-0.3-4-1s-0.7-2.9-0.7-6.8v-7.6h3.5c1.4,0,2.4,0.1,2.9,0.3c0.6,0.2,1,0.6,1.3,1.2
			s0.5,1.8,0.5,3.6h1.1V36.7h-1.1c0,1.6-0.1,2.7-0.3,3.2c-0.2,0.5-0.6,1-1.2,1.2c-0.6,0.3-1.7,0.4-3.3,0.4h-3.4V27.9h4.5
			c2.3,0,3.9,0.1,4.9,0.4c1,0.2,1.9,0.8,2.6,1.8c0.7,0.9,1.4,2.5,1.9,4.8h1.1l-0.8-8.1h-23.1v1.1c1.6,0,2.6,0.2,3.1,0.5
			s0.8,0.9,0.9,1.6c0.1,0.8,0.2,2.4,0.2,4.9v15.8c0,2.7-0.1,4.4-0.2,5c-0.1,0.7-0.4,1.2-0.9,1.6s-1.5,0.6-3.1,0.6h-0.7V59h26.8
			l0.7-10.1h-1.1C197.3,51.4,196.5,53.3,195.5,54.7 M168.9,54.7c-1,1.4-2,2.3-3.1,2.7c-1.1,0.4-2.5,0.7-4.2,0.7h-2.4
			c-2.2,0-3.5-0.3-4-1s-0.7-2.9-0.7-6.8v-7.6h3.5c1.4,0,2.4,0.1,2.9,0.3c0.6,0.2,1,0.6,1.3,1.2s0.5,1.8,0.5,3.6h1.1V36.7h-1.1
			c0,1.6-0.1,2.7-0.3,3.2c-0.2,0.5-0.6,1-1.2,1.2c-0.6,0.3-1.7,0.4-3.3,0.4h-3.4V27.9h4.5c2.3,0,3.9,0.1,4.9,0.4
			c1,0.2,1.9,0.8,2.6,1.8c0.7,0.9,1.4,2.5,1.9,4.8h1.1l-0.8-8.1h-23.1v1.1c1.6,0,2.6,0.2,3.1,0.5s0.8,0.9,0.9,1.6
			c0.1,0.8,0.2,2.4,0.2,4.9v15.8c0,2.7-0.1,4.4-0.2,5c-0.1,0.7-0.4,1.2-0.9,1.6s-1.5,0.6-3.1,0.6H145V59h26.8l0.7-10.1h-1.1
			C170.7,51.4,169.9,53.3,168.9,54.7 M125,27.7c0.8-0.1,1.4-0.1,2-0.1c3.8,0,6.3,0.7,7.4,2c1.1,1.4,1.7,3.2,1.7,5.5
			c0,1.3-0.2,2.4-0.5,3.3s-0.8,1.6-1.4,2.2s-1.3,1-2.3,1.3c-0.9,0.3-2,0.5-3.3,0.5c-1.3,0.1-2.5,0.1-3.7,0.1V27.7H125z M149.4,58
			c-1.9-0.1-3.6-0.6-5-1.6s-3.3-3.2-5.8-6.5c-3-4.1-5.2-6.4-6.5-7.1c3-0.4,5.3-1.3,6.9-2.8c1.6-1.5,2.3-3.3,2.3-5.4
			c0-1.8-0.6-3.4-1.8-4.7c-1.2-1.3-2.8-2.2-4.7-2.8c-1.9-0.6-4.4-0.9-7.5-0.9c-1.8,0-4.3,0.1-7.3,0.2l-4.6,0.2v1.1h0.5
			c1.6,0,2.7,0.1,3.2,0.4s0.8,0.8,1,1.5c0.1,0.7,0.2,2.4,0.2,5v15.8c0,2.7-0.1,4.4-0.2,5.2c-0.1,0.7-0.5,1.3-1,1.6
			c-0.5,0.4-1.5,0.5-2.9,0.5h-1v1.1h15.5V58h-1.5c-1.5,0-2.4-0.2-3-0.6c-0.5-0.4-0.8-1-1-1.8c-0.1-0.8-0.2-2.5-0.2-5v-7.2h1.3
			c0.9,0,1.5,0.1,1.9,0.4s1.2,1.1,2.3,2.5c1.1,1.3,2.2,2.7,3.2,4.2c3.2,4.6,5.5,7.4,7.1,8.5h8.7v-1H149.4z M100.5,40.1h1.1
			c1.9,0,3.2,0.1,3.9,0.4s1.2,0.9,1.6,1.8c0.3,0.9,0.5,2.6,0.5,5.2c0,2.2-0.4,4-1.1,5.5c-0.7,1.5-2.1,2.7-4.1,3.7s-4.3,1.5-6.8,1.5
			c-4.8,0-8.9-1.8-12.1-5.4c-3.3-3.6-4.9-9.7-4.9-18.3c0-8.6,1.7-14.6,5.1-18c3.4-3.4,7.3-5.1,11.9-5.1c4.4,0,8.2,1.5,11.2,4.4
			c3.1,2.9,5,6.8,5.7,11.8h1.7V11.4h-1.7c-0.2,1.9-0.7,3.7-1.5,5.4c-4.2-4.8-9.6-7.1-16.1-7.1c-7.5,0-13.5,2.6-17.9,7.8
			c-4.4,5.2-6.6,11.3-6.6,18.2c0,7,2.3,12.8,6.9,17.3c4.6,4.6,10.4,6.8,17.3,6.8c3.5,0,7.2-0.8,11.3-2.3c3-1.1,5.4-1.7,7.2-1.7
			c0.5,0,1,0,1.5,0.1V51c0-4.2,0.1-6.8,0.4-7.9c0.3-1.1,0.8-1.9,1.6-2.3c0.8-0.5,2.4-0.7,4.7-0.7v-1.7h-20.9v1.7H100.5z"/>
	</g>
	<g>
		<defs>
			<rect id="SVGID_5_" x="3" y="3" width="380.9" height="57"/>
		</defs>
		<clipPath id="SVGID_6_">
			<use xlink:href="#SVGID_5_"  style="overflow:visible;"/>
		</clipPath>
		<path class="st2" d="M68,23.2c0,0.1-8.6-18.7-23.5-10.9c-14.8,7.8-30,24.1-41.5,5.6c0,0,6.9,25.6,39.5-0.1
			C49.3,12.3,57.3,9.9,68,23.2"/>
	</g>
	<g>
		<defs>
			<rect id="SVGID_7_" x="3" y="3" width="380.9" height="57"/>
		</defs>
		<clipPath id="SVGID_8_">
			<use xlink:href="#SVGID_7_"  style="overflow:visible;"/>
		</clipPath>
		<path class="st3" d="M68,30.9C68,31,59.4,12.2,44.5,20S14.5,44.1,3,25.6c0,0,6.9,25.6,39.5-0.1C49.3,20,57.3,17.6,68,30.9"/>
	</g>
	<g>
		<defs>
			<rect id="SVGID_9_" x="3" y="3" width="380.9" height="57"/>
		</defs>
		<clipPath id="SVGID_10_">
			<use xlink:href="#SVGID_9_"  style="overflow:visible;"/>
		</clipPath>
		<path class="st4" d="M68,15.8c0,0.1-8.6-18.7-23.5-10.9C29.7,12.7,14.5,29,3,10.5c0,0,6.9,25.6,39.5-0.1
			C49.3,4.9,57.3,2.5,68,15.8"/>
	</g>
</g>
</svg>
